<svg width="1277" height="78" viewBox="0 0 1277 78" fill="none" xmlns="http://www.w3.org/2000/svg">
<g clip-path="url(#clip0_302_960)">
<g filter="url(#filter0_d_302_960)">
<path d="M23.616 59V25.4H27.648V59H23.616ZM2.16 59V25.4H6.192V59H2.16ZM5.424 43.544V40.232H24.624V43.544H5.424ZM129.076 59.576C127.188 59.576 125.604 59.24 124.324 58.568C123.044 57.896 122.084 57 121.444 55.88C120.836 54.76 120.532 53.544 120.532 52.232C120.532 50.6 120.948 49.224 121.78 48.104C122.644 46.984 123.844 46.136 125.38 45.56C126.948 44.952 128.788 44.648 130.9 44.648H137.332C137.332 43.08 137.092 41.784 136.612 40.76C136.132 39.736 135.444 38.984 134.549 38.504C133.652 37.992 132.58 37.736 131.332 37.736C129.764 37.736 128.404 38.136 127.252 38.936C126.1 39.736 125.396 40.968 125.14 42.632H121.012C121.204 40.904 121.764 39.448 122.692 38.264C123.652 37.08 124.868 36.184 126.34 35.576C127.844 34.936 129.508 34.616 131.332 34.616C133.604 34.616 135.476 35.032 136.948 35.864C138.452 36.664 139.556 37.8 140.26 39.272C140.996 40.712 141.364 42.408 141.364 44.36V59H138.004L137.62 54.92H137.429C136.981 55.688 136.452 56.36 135.844 56.936C135.268 57.512 134.628 57.992 133.924 58.376C133.22 58.76 132.452 59.048 131.62 59.24C130.82 59.464 129.972 59.576 129.076 59.576ZM129.796 56.168C131.012 56.168 132.084 55.944 133.012 55.496C133.94 55.016 134.724 54.376 135.364 53.576C136.004 52.776 136.484 51.88 136.804 50.888C137.156 49.864 137.332 48.824 137.332 47.768H131.236C129.668 47.768 128.404 47.96 127.444 48.344C126.484 48.696 125.796 49.192 125.38 49.832C124.964 50.472 124.756 51.208 124.756 52.04C124.756 52.872 124.948 53.608 125.332 54.248C125.748 54.856 126.324 55.336 127.06 55.688C127.828 56.008 128.74 56.168 129.796 56.168ZM234.246 59V35.192H237.798L238.182 39.128H238.374C239.174 37.624 240.23 36.504 241.542 35.768C242.886 35 244.342 34.616 245.91 34.616C247.158 34.616 248.278 34.808 249.27 35.192C250.294 35.544 251.174 36.072 251.91 36.776C252.646 37.48 253.238 38.376 253.686 39.464H253.878C254.742 37.864 255.846 36.664 257.19 35.864C258.534 35.032 260.182 34.616 262.134 34.616C263.894 34.616 265.446 35 266.79 35.768C268.134 36.504 269.19 37.656 269.958 39.224C270.726 40.76 271.11 42.712 271.11 45.08V59H267.126V45.512C267.126 43.048 266.63 41.192 265.638 39.944C264.646 38.696 263.142 38.072 261.126 38.072C259.878 38.072 258.774 38.328 257.814 38.84C256.854 39.352 256.086 40.168 255.51 41.288C254.966 42.376 254.694 43.784 254.694 45.512V59H250.662V45.512C250.662 43.048 250.166 41.192 249.174 39.944C248.182 38.696 246.758 38.072 244.902 38.072C243.782 38.072 242.71 38.408 241.686 39.08C240.694 39.752 239.878 40.728 239.238 42.008C238.598 43.256 238.278 44.808 238.278 46.664V59H234.246ZM363.259 59V55.928L376.699 38.312H363.499V35.192H381.019V38.264L367.579 55.88H381.259V59H363.259ZM481.713 59.576C479.825 59.576 478.241 59.24 476.961 58.568C475.681 57.896 474.721 57 474.081 55.88C473.473 54.76 473.169 53.544 473.169 52.232C473.169 50.6 473.585 49.224 474.417 48.104C475.281 46.984 476.481 46.136 478.017 45.56C479.585 44.952 481.425 44.648 483.537 44.648H489.969C489.969 43.08 489.729 41.784 489.249 40.76C488.769 39.736 488.081 38.984 487.185 38.504C486.289 37.992 485.217 37.736 483.969 37.736C482.401 37.736 481.041 38.136 479.889 38.936C478.737 39.736 478.033 40.968 477.777 42.632H473.649C473.841 40.904 474.401 39.448 475.329 38.264C476.289 37.08 477.505 36.184 478.977 35.576C480.481 34.936 482.145 34.616 483.969 34.616C486.241 34.616 488.113 35.032 489.585 35.864C491.089 36.664 492.193 37.8 492.897 39.272C493.633 40.712 494.001 42.408 494.001 44.36V59H490.641L490.257 54.92H490.065C489.617 55.688 489.089 56.36 488.481 56.936C487.905 57.512 487.265 57.992 486.561 58.376C485.857 58.76 485.089 59.048 484.257 59.24C483.457 59.464 482.609 59.576 481.713 59.576ZM482.433 56.168C483.649 56.168 484.721 55.944 485.649 55.496C486.577 55.016 487.361 54.376 488.001 53.576C488.641 52.776 489.121 51.88 489.441 50.888C489.793 49.864 489.969 48.824 489.969 47.768H483.873C482.305 47.768 481.041 47.96 480.081 48.344C479.121 48.696 478.433 49.192 478.017 49.832C477.601 50.472 477.393 51.208 477.393 52.04C477.393 52.872 477.585 53.608 477.969 54.248C478.385 54.856 478.961 55.336 479.697 55.688C480.465 56.008 481.377 56.168 482.433 56.168ZM686.012 59V25.4H697.82C700.188 25.4 702.14 25.784 703.676 26.552C705.244 27.288 706.412 28.312 707.18 29.624C707.948 30.904 708.332 32.344 708.332 33.944C708.332 35.672 707.948 37.112 707.18 38.264C706.444 39.416 705.468 40.296 704.252 40.904C703.068 41.512 701.804 41.88 700.46 42.008L701.132 41.528C702.572 41.56 703.9 41.944 705.116 42.68C706.332 43.416 707.292 44.408 707.996 45.656C708.732 46.904 709.1 48.296 709.1 49.832C709.1 51.528 708.684 53.08 707.852 54.488C707.02 55.864 705.788 56.968 704.156 57.8C702.556 58.6 700.572 59 698.204 59H686.012ZM690.044 55.64H697.772C700.044 55.64 701.804 55.112 703.052 54.056C704.332 52.968 704.972 51.464 704.972 49.544C704.972 47.656 704.316 46.152 703.004 45.032C701.724 43.88 699.948 43.304 697.676 43.304H690.044V55.64ZM690.044 40.088H697.532C699.708 40.088 701.356 39.576 702.476 38.552C703.628 37.528 704.204 36.136 704.204 34.376C704.204 32.68 703.628 31.32 702.476 30.296C701.356 29.272 699.66 28.76 697.388 28.76H690.044V40.088ZM810.604 59.576C808.78 59.576 807.18 59.208 805.804 58.472C804.46 57.704 803.404 56.552 802.636 55.016C801.868 53.448 801.484 51.48 801.484 49.112V35.192H805.516V48.68C805.516 51.144 806.044 53 807.1 54.248C808.156 55.496 809.676 56.12 811.66 56.12C813.036 56.12 814.252 55.784 815.308 55.112C816.396 54.44 817.244 53.464 817.852 52.184C818.492 50.904 818.812 49.352 818.812 47.528V35.192H822.844V59H819.292L818.908 55.256H818.716C817.916 56.536 816.828 57.576 815.452 58.376C814.108 59.176 812.492 59.576 810.604 59.576ZM915.941 59V35.192H919.493L919.877 40.376H920.069C920.869 38.648 921.653 37.384 922.421 36.584C923.189 35.752 924.069 35.224 925.061 35C926.085 34.744 927.349 34.616 928.853 34.616V38.84H927.797C926.517 38.84 925.381 39.016 924.389 39.368C923.397 39.688 922.581 40.168 921.941 40.808C921.301 41.448 920.805 42.264 920.453 43.256C920.133 44.216 919.973 45.352 919.973 46.664V59H915.941ZM1020.56 59V25.4H1024.59V39.176H1024.78C1025.74 37.672 1026.91 36.536 1028.28 35.768C1029.69 35 1031.2 34.616 1032.8 34.616C1034.62 34.616 1036.22 35 1037.6 35.768C1038.97 36.504 1040.03 37.656 1040.76 39.224C1041.53 40.76 1041.92 42.712 1041.92 45.08V59H1037.93V45.512C1037.93 43.048 1037.42 41.192 1036.4 39.944C1035.4 38.696 1033.92 38.072 1031.93 38.072C1030.56 38.072 1029.31 38.408 1028.19 39.08C1027.07 39.752 1026.19 40.728 1025.55 42.008C1024.91 43.256 1024.59 44.808 1024.59 46.664V59H1020.56ZM1142.88 59.576C1140.99 59.576 1139.41 59.24 1138.13 58.568C1136.85 57.896 1135.89 57 1135.25 55.88C1134.64 54.76 1134.33 53.544 1134.33 52.232C1134.33 50.6 1134.75 49.224 1135.58 48.104C1136.45 46.984 1137.65 46.136 1139.18 45.56C1140.75 44.952 1142.59 44.648 1144.7 44.648H1151.13C1151.13 43.08 1150.89 41.784 1150.41 40.76C1149.93 39.736 1149.25 38.984 1148.35 38.504C1147.45 37.992 1146.38 37.736 1145.13 37.736C1143.57 37.736 1142.21 38.136 1141.05 38.936C1139.9 39.736 1139.2 40.968 1138.94 42.632H1134.81C1135.01 40.904 1135.57 39.448 1136.49 38.264C1137.45 37.08 1138.67 36.184 1140.14 35.576C1141.65 34.936 1143.31 34.616 1145.13 34.616C1147.41 34.616 1149.28 35.032 1150.75 35.864C1152.25 36.664 1153.36 37.8 1154.06 39.272C1154.8 40.712 1155.17 42.408 1155.17 44.36V59H1151.81L1151.42 54.92H1151.23C1150.78 55.688 1150.25 56.36 1149.65 56.936C1149.07 57.512 1148.43 57.992 1147.73 58.376C1147.02 58.76 1146.25 59.048 1145.42 59.24C1144.62 59.464 1143.77 59.576 1142.88 59.576ZM1143.6 56.168C1144.81 56.168 1145.89 55.944 1146.81 55.496C1147.74 55.016 1148.53 54.376 1149.17 53.576C1149.81 52.776 1150.29 51.88 1150.61 50.888C1150.96 49.864 1151.13 48.824 1151.13 47.768H1145.04C1143.47 47.768 1142.21 47.96 1141.25 48.344C1140.29 48.696 1139.6 49.192 1139.18 49.832C1138.77 50.472 1138.56 51.208 1138.56 52.04C1138.56 52.872 1138.75 53.608 1139.13 54.248C1139.55 54.856 1140.13 55.336 1140.86 55.688C1141.63 56.008 1142.54 56.168 1143.6 56.168ZM1248.05 59V35.192H1251.6L1251.98 38.936H1252.17C1253.01 37.624 1254.09 36.584 1255.44 35.816C1256.78 35.016 1258.4 34.616 1260.29 34.616C1262.11 34.616 1263.71 35 1265.09 35.768C1266.46 36.504 1267.52 37.656 1268.25 39.224C1269.02 40.76 1269.41 42.712 1269.41 45.08V59H1265.37V45.512C1265.37 43.048 1264.85 41.192 1263.79 39.944C1262.73 38.696 1261.21 38.072 1259.23 38.072C1257.85 38.072 1256.62 38.408 1255.53 39.08C1254.48 39.752 1253.63 40.728 1252.99 42.008C1252.38 43.256 1252.08 44.808 1252.08 46.664V59H1248.05Z" fill="#FFE9D9"/>
</g>
</g>
<defs>
<filter id="filter0_d_302_960" x="-1.83984" y="25.4" width="1275.25" height="42.176" filterUnits="userSpaceOnUse" color-interpolation-filters="sRGB">
<feFlood flood-opacity="0" result="BackgroundImageFix"/>
<feColorMatrix in="SourceAlpha" type="matrix" values="0 0 0 0 0 0 0 0 0 0 0 0 0 0 0 0 0 0 127 0" result="hardAlpha"/>
<feOffset dy="4"/>
<feGaussianBlur stdDeviation="2"/>
<feComposite in2="hardAlpha" operator="out"/>
<feColorMatrix type="matrix" values="0 0 0 0 0 0 0 0 0 0 0 0 0 0 0 0 0 0 0.25 0"/>
<feBlend mode="normal" in2="BackgroundImageFix" result="effect1_dropShadow_302_960"/>
<feBlend mode="normal" in="SourceGraphic" in2="effect1_dropShadow_302_960" result="shape"/>
</filter>
<clipPath id="clip0_302_960">
<rect width="1277" height="78" fill="white"/>
</clipPath>
</defs>
</svg>
