<svg width="196" height="100" viewBox="0 0 196 100" fill="none" xmlns="http://www.w3.org/2000/svg">
<path d="M98.544 60.224C96.4747 60.224 94.5653 59.744 92.816 58.784C91.088 57.8027 89.712 56.448 88.688 54.72C87.6853 52.9707 87.184 51.008 87.184 48.832C87.184 46.656 87.6853 44.704 88.688 42.976C89.712 41.248 91.088 39.904 92.816 38.944C94.5653 37.9627 96.4747 37.472 98.544 37.472C100.635 37.472 102.544 37.9627 104.272 38.944C106.021 39.904 107.397 41.248 108.4 42.976C109.403 44.704 109.904 46.656 109.904 48.832C109.904 51.008 109.403 52.9707 108.4 54.72C107.397 56.448 106.021 57.8027 104.272 58.784C102.544 59.744 100.635 60.224 98.544 60.224ZM98.544 57.056C100.016 57.056 101.328 56.7253 102.48 56.064C103.632 55.3813 104.528 54.4213 105.168 53.184C105.829 51.9253 106.16 50.4747 106.16 48.832C106.16 47.1893 105.829 45.7493 105.168 44.512C104.528 43.2747 103.632 42.3253 102.48 41.664C101.328 41.0027 100.016 40.672 98.544 40.672C97.072 40.672 95.76 41.0027 94.608 41.664C93.456 42.3253 92.5493 43.2747 91.888 44.512C91.248 45.7493 90.928 47.1893 90.928 48.832C90.928 50.4747 91.248 51.9253 91.888 53.184C92.5493 54.4213 93.456 55.3813 94.608 56.064C95.76 56.7253 97.072 57.056 98.544 57.056ZM117.142 44.96C117.76 44.1493 118.603 43.4667 119.67 42.912C120.736 42.3573 121.942 42.08 123.286 42.08C124.822 42.08 126.219 42.464 127.478 43.232C128.758 43.9787 129.76 45.0347 130.486 46.4C131.211 47.7653 131.574 49.3333 131.574 51.104C131.574 52.8747 131.211 54.464 130.486 55.872C129.76 57.2587 128.758 58.3467 127.478 59.136C126.219 59.904 124.822 60.288 123.286 60.288C121.942 60.288 120.747 60.0213 119.702 59.488C118.656 58.9333 117.803 58.2507 117.142 57.44V68.384H113.494V42.368H117.142V44.96ZM127.862 51.104C127.862 49.888 127.606 48.8427 127.094 47.968C126.603 47.072 125.942 46.4 125.11 45.952C124.299 45.4827 123.424 45.248 122.486 45.248C121.568 45.248 120.694 45.4827 119.862 45.952C119.051 46.4213 118.39 47.104 117.878 48C117.387 48.896 117.142 49.952 117.142 51.168C117.142 52.384 117.387 53.4507 117.878 54.368C118.39 55.264 119.051 55.9467 119.862 56.416C120.694 56.8853 121.568 57.12 122.486 57.12C123.424 57.12 124.299 56.8853 125.11 56.416C125.942 55.9253 126.603 55.2213 127.094 54.304C127.606 53.3867 127.862 52.32 127.862 51.104ZM133.965 51.104C133.965 49.3333 134.328 47.7653 135.053 46.4C135.8 45.0347 136.803 43.9787 138.061 43.232C139.341 42.464 140.749 42.08 142.285 42.08C143.672 42.08 144.877 42.3573 145.901 42.912C146.947 43.4453 147.779 44.1173 148.397 44.928V42.368H152.077V60H148.397V57.376C147.779 58.208 146.936 58.9013 145.869 59.456C144.803 60.0107 143.587 60.288 142.221 60.288C140.707 60.288 139.32 59.904 138.061 59.136C136.803 58.3467 135.8 57.2587 135.053 55.872C134.328 54.464 133.965 52.8747 133.965 51.104ZM148.397 51.168C148.397 49.952 148.141 48.896 147.629 48C147.139 47.104 146.488 46.4213 145.677 45.952C144.867 45.4827 143.992 45.248 143.053 45.248C142.115 45.248 141.24 45.4827 140.429 45.952C139.619 46.4 138.957 47.072 138.445 47.968C137.955 48.8427 137.709 49.888 137.709 51.104C137.709 52.32 137.955 53.3867 138.445 54.304C138.957 55.2213 139.619 55.9253 140.429 56.416C141.261 56.8853 142.136 57.12 143.053 57.12C143.992 57.12 144.867 56.8853 145.677 56.416C146.488 55.9467 147.139 55.264 147.629 54.368C148.141 53.4507 148.397 52.384 148.397 51.168ZM160.517 36.32V60H156.869V36.32H160.517Z" fill="black"/>
<path d="M68.2 52C68.2 57.3848 63.6333 61.75 58 61.75C52.3667 61.75 47.8 57.3848 47.8 52M68.2 52C68.2 46.6152 63.6333 42.25 58 42.25C52.3667 42.25 47.8 46.6152 47.8 52M68.2 52C68.2 59.1797 62.1111 65 54.6 65C47.0889 65 41 59.1797 41 52M47.8 52C47.8 44.8203 53.8889 39 61.4 39C68.9111 39 75 44.8203 75 52" stroke="black" stroke-width="4" stroke-linecap="round" stroke-linejoin="round"/>
</svg>
