<svg width="196" height="100" viewBox="0 0 196 100" fill="none" xmlns="http://www.w3.org/2000/svg">
<path d="M89.024 46.88V58H87.2V46.88H89.024ZM95.8668 49.04C96.5601 49.04 97.1788 49.184 97.7228 49.472C98.2774 49.76 98.7094 50.1867 99.0188 50.752C99.3281 51.3173 99.4828 52 99.4828 52.8V58H97.6748V53.072C97.6748 52.2827 97.4774 51.68 97.0828 51.264C96.6881 50.8373 96.1494 50.624 95.4668 50.624C94.7841 50.624 94.2401 50.8373 93.8348 51.264C93.4401 51.68 93.2428 52.2827 93.2428 53.072V58H91.4188V49.184H93.2428V50.192C93.5414 49.8293 93.9201 49.5467 94.3788 49.344C94.8481 49.1413 95.3441 49.04 95.8668 49.04ZM103.937 50.672V55.552C103.937 55.8827 104.012 56.1227 104.161 56.272C104.321 56.4107 104.588 56.48 104.961 56.48H106.081V58H104.641C103.82 58 103.191 57.808 102.753 57.424C102.316 57.04 102.097 56.416 102.097 55.552V50.672H101.057V49.184H102.097V46.992H103.937V49.184H106.081V50.672H103.937ZM115.843 53.376C115.843 53.7067 115.821 54.0053 115.779 54.272H109.043C109.096 54.976 109.357 55.5413 109.827 55.968C110.296 56.3947 110.872 56.608 111.555 56.608C112.536 56.608 113.229 56.1973 113.635 55.376H115.602C115.336 56.1867 114.851 56.8533 114.147 57.376C113.453 57.888 112.589 58.144 111.555 58.144C110.712 58.144 109.955 57.9573 109.283 57.584C108.621 57.2 108.099 56.6667 107.715 55.984C107.341 55.2907 107.155 54.4907 107.155 53.584C107.155 52.6773 107.336 51.8827 107.699 51.2C108.072 50.5067 108.589 49.9733 109.251 49.6C109.923 49.2267 110.691 49.04 111.555 49.04C112.387 49.04 113.128 49.2213 113.779 49.584C114.429 49.9467 114.936 50.4587 115.299 51.12C115.661 51.7707 115.843 52.5227 115.843 53.376ZM113.939 52.8C113.928 52.128 113.688 51.5893 113.219 51.184C112.749 50.7787 112.168 50.576 111.475 50.576C110.845 50.576 110.307 50.7787 109.859 51.184C109.411 51.5787 109.144 52.1173 109.059 52.8H113.939ZM119.462 46.16V58H117.638V46.16H119.462ZM123.68 46.16V58H121.856V46.16H123.68ZM127.003 48.016C126.672 48.016 126.395 47.904 126.171 47.68C125.947 47.456 125.835 47.1787 125.835 46.848C125.835 46.5173 125.947 46.24 126.171 46.016C126.395 45.792 126.672 45.68 127.003 45.68C127.323 45.68 127.595 45.792 127.819 46.016C128.043 46.24 128.155 46.5173 128.155 46.848C128.155 47.1787 128.043 47.456 127.819 47.68C127.595 47.904 127.323 48.016 127.003 48.016ZM127.899 49.184V58H126.075V49.184H127.899ZM131.222 48.016C130.891 48.016 130.614 47.904 130.39 47.68C130.166 47.456 130.054 47.1787 130.054 46.848C130.054 46.5173 130.166 46.24 130.39 46.016C130.614 45.792 130.891 45.68 131.222 45.68C131.542 45.68 131.814 45.792 132.038 46.016C132.262 46.24 132.374 46.5173 132.374 46.848C132.374 47.1787 132.262 47.456 132.038 47.68C131.814 47.904 131.542 48.016 131.222 48.016ZM132.118 59.728C132.118 60.592 131.899 61.216 131.462 61.6C131.035 61.9947 130.411 62.192 129.59 62.192H128.646V60.656H129.27C129.643 60.656 129.904 60.5813 130.054 60.432C130.214 60.2933 130.294 60.0587 130.294 59.728V49.184H132.118V59.728ZM133.905 53.552C133.905 52.6667 134.086 51.8827 134.449 51.2C134.822 50.5173 135.323 49.9893 135.953 49.616C136.593 49.232 137.297 49.04 138.065 49.04C138.758 49.04 139.361 49.1787 139.873 49.456C140.395 49.7227 140.811 50.0587 141.121 50.464V49.184H142.961V58H141.121V56.688C140.811 57.104 140.39 57.4507 139.857 57.728C139.323 58.0053 138.715 58.144 138.033 58.144C137.275 58.144 136.582 57.952 135.953 57.568C135.323 57.1733 134.822 56.6293 134.449 55.936C134.086 55.232 133.905 54.4373 133.905 53.552ZM141.121 53.584C141.121 52.976 140.993 52.448 140.737 52C140.491 51.552 140.166 51.2107 139.761 50.976C139.355 50.7413 138.918 50.624 138.449 50.624C137.979 50.624 137.542 50.7413 137.137 50.976C136.731 51.2 136.401 51.536 136.145 51.984C135.899 52.4213 135.777 52.944 135.777 53.552C135.777 54.16 135.899 54.6933 136.145 55.152C136.401 55.6107 136.731 55.9627 137.137 56.208C137.553 56.4427 137.99 56.56 138.449 56.56C138.918 56.56 139.355 56.4427 139.761 56.208C140.166 55.9733 140.491 55.632 140.737 55.184C140.993 54.7253 141.121 54.192 141.121 53.584Z" fill="black"/>
<path d="M82.727 29.774C82.0887 29.9544 81.7098 30.6464 81.8809 31.3195C82.0519 31.9927 82.7081 32.3922 83.3465 32.2119L86.708 31.262L79.1421 45.7893L73.5141 40.7565C73.213 40.4873 72.8054 40.3919 72.4246 40.5017C72.0438 40.6114 71.7389 40.9122 71.6095 41.3055L68.0912 52.004L63.1994 47.3247C62.9521 47.0881 62.6222 46.9713 62.2895 47.0025C61.9568 47.0336 61.6517 47.21 61.4477 47.4889L55.249 55.9675C54.8455 56.5195 54.9427 57.3119 55.4661 57.7374C55.9895 58.1629 56.7409 58.0605 57.1444 57.5085L62.5516 50.1126L67.8245 55.1563C68.1221 55.441 68.5353 55.5492 68.9247 55.4443C69.314 55.3394 69.6274 55.0355 69.7591 54.6351L73.2984 43.8727L78.7117 48.7136C78.9857 48.9586 79.3496 49.0608 79.7029 48.992C80.0563 48.9232 80.3616 48.6907 80.5345 48.3586L88.7614 32.5621L89.6472 36.0479C89.8182 36.7211 90.4744 37.1206 91.1128 36.9402C91.7511 36.7598 92.13 36.0679 91.9589 35.3947L90.3177 28.9356C90.1467 28.2624 89.4905 27.8629 88.8521 28.0433L82.727 29.774Z" fill="black"/>
</svg>
