<svg width="196" height="100" viewBox="0 0 196 100" fill="none" xmlns="http://www.w3.org/2000/svg">
<path d="M95.888 48.624C95.888 46.992 96.264 45.528 97.016 44.232C97.784 42.936 98.816 41.928 100.112 41.208C101.424 40.472 102.856 40.104 104.408 40.104C106.184 40.104 107.76 40.544 109.136 41.424C110.528 42.288 111.536 43.52 112.16 45.12H108.872C108.44 44.24 107.84 43.584 107.072 43.152C106.304 42.72 105.416 42.504 104.408 42.504C103.304 42.504 102.32 42.752 101.456 43.248C100.592 43.744 99.912 44.456 99.416 45.384C98.936 46.312 98.696 47.392 98.696 48.624C98.696 49.856 98.936 50.936 99.416 51.864C99.912 52.792 100.592 53.512 101.456 54.024C102.32 54.52 103.304 54.768 104.408 54.768C105.416 54.768 106.304 54.552 107.072 54.12C107.84 53.688 108.44 53.032 108.872 52.152H112.16C111.536 53.752 110.528 54.984 109.136 55.848C107.76 56.712 106.184 57.144 104.408 57.144C102.84 57.144 101.408 56.784 100.112 56.064C98.816 55.328 97.784 54.312 97.016 53.016C96.264 51.72 95.888 50.256 95.888 48.624ZM124.291 48.432C125.187 48.592 125.947 49.064 126.571 49.848C127.195 50.632 127.507 51.52 127.507 52.512C127.507 53.36 127.283 54.128 126.835 54.816C126.403 55.488 125.771 56.024 124.939 56.424C124.107 56.808 123.139 57 122.035 57H115.363V40.32H121.723C122.859 40.32 123.835 40.512 124.651 40.896C125.467 41.28 126.083 41.8 126.499 42.456C126.915 43.096 127.122 43.816 127.122 44.616C127.122 45.576 126.867 46.376 126.355 47.016C125.843 47.656 125.155 48.128 124.291 48.432ZM118.099 47.328H121.483C122.379 47.328 123.075 47.128 123.571 46.728C124.083 46.312 124.339 45.72 124.339 44.952C124.339 44.2 124.083 43.616 123.571 43.2C123.075 42.768 122.379 42.552 121.483 42.552H118.099V47.328ZM121.795 54.768C122.723 54.768 123.451 54.544 123.979 54.096C124.507 53.648 124.771 53.024 124.771 52.224C124.771 51.408 124.491 50.76 123.931 50.28C123.371 49.8 122.627 49.56 121.699 49.56H118.099V54.768H121.795ZM139.144 57L135.304 50.328H133.216V57H130.48V40.32H136.24C137.52 40.32 138.6 40.544 139.48 40.992C140.376 41.44 141.04 42.04 141.472 42.792C141.92 43.544 142.144 44.384 142.144 45.312C142.144 46.4 141.824 47.392 141.184 48.288C140.56 49.168 139.592 49.768 138.28 50.088L142.408 57H139.144ZM133.216 48.144H136.24C137.264 48.144 138.032 47.888 138.544 47.376C139.072 46.864 139.336 46.176 139.336 45.312C139.336 44.448 139.08 43.776 138.568 43.296C138.056 42.8 137.28 42.552 136.24 42.552H133.216V48.144ZM148.38 42.528V47.424H154.14V49.656H148.38V54.768H154.86V57H145.644V40.296H154.86V42.528H148.38Z" fill="black"/>
<path fill-rule="evenodd" clip-rule="evenodd" d="M56.9195 37.578C58.1604 32.0958 63.097 28 69 28C74.903 28 79.8396 32.0958 81.0805 37.578C85.5768 38.3347 89 42.2149 89 46.8889C89 49.9019 88.4378 52.9385 85.7202 54.7424C85.2831 55.0325 84.6916 54.9163 84.399 54.4829C84.1065 54.0494 84.2236 53.4628 84.6607 53.1727C86.5374 51.927 87.0952 49.77 87.0952 46.8889C87.0952 42.9545 84.0621 39.7216 80.1889 39.3659C79.7573 39.3263 79.4072 39.0027 79.3369 38.5787C78.5198 33.6495 74.2018 29.8889 69 29.8889C63.7982 29.8889 59.4802 33.6495 58.6631 38.5787C58.5928 39.0027 58.2427 39.3263 57.8111 39.3659C53.9379 39.7216 50.9048 42.9545 50.9048 46.8889C50.9048 49.5076 52.2474 51.8157 54.2917 53.1727C54.7288 53.4628 54.8459 54.0494 54.5533 54.4829C54.2608 54.9163 53.6692 55.0325 53.2321 54.7424C50.6822 53.0497 49 50.1643 49 46.8889C49 42.2149 52.4232 38.3347 56.9195 37.578ZM67.381 45C67.7896 45 68.1527 45.2585 68.2833 45.6424L72.5238 58.1021L74.1929 53.198C74.3235 52.814 74.6866 52.5556 75.0952 52.5556H78.5238C79.0498 52.5556 79.4762 52.9784 79.4762 53.5C79.4762 54.0216 79.0498 54.4444 78.5238 54.4444H75.779L73.4262 61.3576C73.2955 61.7415 72.9324 62 72.5238 62C72.1152 62 71.7521 61.7415 71.6214 61.3576L67.381 48.8979L65.7119 53.802C65.5812 54.186 65.2181 54.4444 64.8095 54.4444H61.381C60.855 54.4444 60.4286 54.0216 60.4286 53.5C60.4286 52.9784 60.855 52.5556 61.381 52.5556H64.1258L66.4786 45.6424C66.6092 45.2585 66.9723 45 67.381 45Z" fill="black"/>
</svg>
