<svg width="196" height="100" viewBox="0 0 196 100" fill="none" xmlns="http://www.w3.org/2000/svg">
<path d="M97.835 43.575V54H96.125V43.575H97.835ZM104.25 45.6C104.9 45.6 105.48 45.735 105.99 46.005C106.51 46.275 106.915 46.675 107.205 47.205C107.495 47.735 107.64 48.375 107.64 49.125V54H105.945V49.38C105.945 48.64 105.76 48.075 105.39 47.685C105.02 47.285 104.515 47.085 103.875 47.085C103.235 47.085 102.725 47.285 102.345 47.685C101.975 48.075 101.79 48.64 101.79 49.38V54H100.08V45.735H101.79V46.68C102.07 46.34 102.425 46.075 102.855 45.885C103.295 45.695 103.76 45.6 104.25 45.6ZM111.816 47.13V51.705C111.816 52.015 111.886 52.24 112.026 52.38C112.176 52.51 112.426 52.575 112.776 52.575H113.826V54H112.476C111.706 54 111.116 53.82 110.706 53.46C110.296 53.1 110.091 52.515 110.091 51.705V47.13H109.116V45.735H110.091V43.68H111.816V45.735H113.826V47.13H111.816ZM122.977 49.665C122.977 49.975 122.957 50.255 122.917 50.505H116.602C116.652 51.165 116.897 51.695 117.337 52.095C117.777 52.495 118.317 52.695 118.957 52.695C119.877 52.695 120.527 52.31 120.907 51.54H122.752C122.502 52.3 122.047 52.925 121.387 53.415C120.737 53.895 119.927 54.135 118.957 54.135C118.167 54.135 117.457 53.96 116.827 53.61C116.207 53.25 115.717 52.75 115.357 52.11C115.007 51.46 114.832 50.71 114.832 49.86C114.832 49.01 115.002 48.265 115.342 47.625C115.692 46.975 116.177 46.475 116.797 46.125C117.427 45.775 118.147 45.6 118.957 45.6C119.737 45.6 120.432 45.77 121.042 46.11C121.652 46.45 122.127 46.93 122.467 47.55C122.807 48.16 122.977 48.865 122.977 49.665ZM121.192 49.125C121.182 48.495 120.957 47.99 120.517 47.61C120.077 47.23 119.532 47.04 118.882 47.04C118.292 47.04 117.787 47.23 117.367 47.61C116.947 47.98 116.697 48.485 116.617 49.125H121.192ZM126.37 42.9V54H124.66V42.9H126.37ZM130.325 42.9V54H128.615V42.9H130.325ZM133.44 44.64C133.13 44.64 132.87 44.535 132.66 44.325C132.45 44.115 132.345 43.855 132.345 43.545C132.345 43.235 132.45 42.975 132.66 42.765C132.87 42.555 133.13 42.45 133.44 42.45C133.74 42.45 133.995 42.555 134.205 42.765C134.415 42.975 134.52 43.235 134.52 43.545C134.52 43.855 134.415 44.115 134.205 44.325C133.995 44.535 133.74 44.64 133.44 44.64ZM134.28 45.735V54H132.57V45.735H134.28ZM144.85 43.575V54H143.14V49.44H138.235V54H136.525V43.575H138.235V48.045H143.14V43.575H144.85ZM154.677 49.665C154.677 49.975 154.657 50.255 154.617 50.505H148.302C148.352 51.165 148.597 51.695 149.037 52.095C149.477 52.495 150.017 52.695 150.657 52.695C151.577 52.695 152.227 52.31 152.607 51.54H154.452C154.202 52.3 153.747 52.925 153.087 53.415C152.437 53.895 151.627 54.135 150.657 54.135C149.867 54.135 149.157 53.96 148.527 53.61C147.907 53.25 147.417 52.75 147.057 52.11C146.707 51.46 146.532 50.71 146.532 49.86C146.532 49.01 146.702 48.265 147.042 47.625C147.392 46.975 147.877 46.475 148.497 46.125C149.127 45.775 149.847 45.6 150.657 45.6C151.437 45.6 152.132 45.77 152.742 46.11C153.352 46.45 153.827 46.93 154.167 47.55C154.507 48.16 154.677 48.865 154.677 49.665ZM152.892 49.125C152.882 48.495 152.657 47.99 152.217 47.61C151.777 47.23 151.232 47.04 150.582 47.04C149.992 47.04 149.487 47.23 149.067 47.61C148.647 47.98 148.397 48.485 148.317 49.125H152.892ZM155.789 49.83C155.789 49 155.959 48.265 156.299 47.625C156.649 46.985 157.119 46.49 157.709 46.14C158.309 45.78 158.969 45.6 159.689 45.6C160.339 45.6 160.904 45.73 161.384 45.99C161.874 46.24 162.264 46.555 162.554 46.935V45.735H164.279V54H162.554V52.77C162.264 53.16 161.869 53.485 161.369 53.745C160.869 54.005 160.299 54.135 159.659 54.135C158.949 54.135 158.299 53.955 157.709 53.595C157.119 53.225 156.649 52.715 156.299 52.065C155.959 51.405 155.789 50.66 155.789 49.83ZM162.554 49.86C162.554 49.29 162.434 48.795 162.194 48.375C161.964 47.955 161.659 47.635 161.279 47.415C160.899 47.195 160.489 47.085 160.049 47.085C159.609 47.085 159.199 47.195 158.819 47.415C158.439 47.625 158.129 47.94 157.889 48.36C157.659 48.77 157.544 49.26 157.544 49.83C157.544 50.4 157.659 50.9 157.889 51.33C158.129 51.76 158.439 52.09 158.819 52.32C159.209 52.54 159.619 52.65 160.049 52.65C160.489 52.65 160.899 52.54 161.279 52.32C161.659 52.1 161.964 51.78 162.194 51.36C162.434 50.93 162.554 50.43 162.554 49.86ZM168.52 47.13V51.705C168.52 52.015 168.59 52.24 168.73 52.38C168.88 52.51 169.13 52.575 169.48 52.575H170.53V54H169.18C168.41 54 167.82 53.82 167.41 53.46C167 53.1 166.795 52.515 166.795 51.705V47.13H165.82V45.735H166.795V43.68H168.52V45.735H170.53V47.13H168.52Z" fill="black"/>
<path d="M70.8 41.7L74 44.5M74 44.5L77.2 41.7M74 44.5L74 36.8C74 35.2536 75.4327 34 77.2 34H86.8C88.5673 34 90 35.2536 90 36.8V44.5M77.2 54.3L74 51.5M74 51.5L70.8 54.3M74 51.5V59.2C74 60.7464 72.5673 62 70.8 62H61.2C59.4327 62 58 60.7464 58 59.2V51.5M81.2 45.2L78 48M78 48L81.2 50.8M78 48L86.8 48C88.5673 48 90 49.2536 90 50.8V59.2C90 60.7464 88.5673 62 86.8 62H78M66.8 50.8L70 48M70 48L66.8 45.2M70 48L61.2 48C59.4327 48 58 46.7464 58 45.2V36.8C58 35.2536 59.4327 34 61.2 34H70" stroke="black" stroke-width="4" stroke-linecap="round" stroke-linejoin="round"/>
</svg>
