<svg width="196" height="100" viewBox="0 0 196 100" fill="none" xmlns="http://www.w3.org/2000/svg">
<path d="M86.592 52.416C86.592 51.328 86.8427 50.352 87.344 49.488C87.856 48.624 88.544 47.952 89.408 47.472C90.2827 46.9813 91.2373 46.736 92.272 46.736C93.456 46.736 94.5067 47.0293 95.424 47.616C96.352 48.192 97.024 49.0133 97.44 50.08H95.248C94.96 49.4933 94.56 49.056 94.048 48.768C93.536 48.48 92.944 48.336 92.272 48.336C91.536 48.336 90.88 48.5013 90.304 48.832C89.728 49.1627 89.2747 49.6373 88.944 50.256C88.624 50.8747 88.464 51.5947 88.464 52.416C88.464 53.2373 88.624 53.9573 88.944 54.576C89.2747 55.1947 89.728 55.6747 90.304 56.016C90.88 56.3467 91.536 56.512 92.272 56.512C92.944 56.512 93.536 56.368 94.048 56.08C94.56 55.792 94.96 55.3547 95.248 54.768H97.44C97.024 55.8347 96.352 56.656 95.424 57.232C94.5067 57.808 93.456 58.096 92.272 58.096C91.2267 58.096 90.272 57.856 89.408 57.376C88.544 56.8853 87.856 56.208 87.344 55.344C86.8427 54.48 86.592 53.504 86.592 52.416ZM104.135 49.04C104.807 49.04 105.404 49.184 105.927 49.472C106.46 49.76 106.876 50.1867 107.175 50.752C107.484 51.3173 107.639 52 107.639 52.8V58H105.831V53.072C105.831 52.2827 105.634 51.68 105.239 51.264C104.844 50.8373 104.306 50.624 103.623 50.624C102.94 50.624 102.396 50.8373 101.991 51.264C101.596 51.68 101.399 52.2827 101.399 53.072V58H99.575V46.16H101.399V50.208C101.708 49.8347 102.098 49.5467 102.567 49.344C103.047 49.1413 103.57 49.04 104.135 49.04ZM117.95 49.184V58H116.126V56.96C115.838 57.3227 115.459 57.6107 114.99 57.824C114.531 58.0267 114.04 58.128 113.518 58.128C112.824 58.128 112.2 57.984 111.646 57.696C111.102 57.408 110.67 56.9813 110.35 56.416C110.04 55.8507 109.886 55.168 109.886 54.368V49.184H111.694V54.096C111.694 54.8853 111.891 55.4933 112.286 55.92C112.68 56.336 113.219 56.544 113.902 56.544C114.584 56.544 115.123 56.336 115.518 55.92C115.923 55.4933 116.126 54.8853 116.126 54.096V49.184H117.95ZM122.18 50.464C122.447 50.016 122.799 49.6693 123.236 49.424C123.684 49.168 124.212 49.04 124.82 49.04V50.928H124.356C123.642 50.928 123.098 51.1093 122.724 51.472C122.362 51.8347 122.18 52.464 122.18 53.36V58H120.356V49.184H122.18V50.464ZM125.889 53.584C125.889 52.6773 126.07 51.8827 126.433 51.2C126.806 50.5067 127.318 49.9733 127.969 49.6C128.62 49.2267 129.366 49.04 130.209 49.04C131.276 49.04 132.156 49.296 132.849 49.808C133.553 50.3093 134.028 51.0293 134.273 51.968H132.305C132.145 51.5307 131.889 51.1893 131.537 50.944C131.185 50.6987 130.742 50.576 130.209 50.576C129.462 50.576 128.865 50.8427 128.417 51.376C127.98 51.8987 127.761 52.6347 127.761 53.584C127.761 54.5333 127.98 55.2747 128.417 55.808C128.865 56.3413 129.462 56.608 130.209 56.608C131.265 56.608 131.964 56.144 132.305 55.216H134.273C134.017 56.112 133.537 56.8267 132.833 57.36C132.129 57.8827 131.254 58.144 130.209 58.144C129.366 58.144 128.62 57.9573 127.969 57.584C127.318 57.2 126.806 56.6667 126.433 55.984C126.07 55.2907 125.889 54.4907 125.889 53.584ZM140.651 49.04C141.323 49.04 141.92 49.184 142.443 49.472C142.976 49.76 143.392 50.1867 143.691 50.752C144 51.3173 144.155 52 144.155 52.8V58H142.347V53.072C142.347 52.2827 142.149 51.68 141.755 51.264C141.36 50.8373 140.821 50.624 140.139 50.624C139.456 50.624 138.912 50.8373 138.507 51.264C138.112 51.68 137.915 52.2827 137.915 53.072V58H136.091V46.16H137.915V50.208C138.224 49.8347 138.613 49.5467 139.083 49.344C139.563 49.1413 140.085 49.04 140.651 49.04ZM147.409 48.016C147.079 48.016 146.801 47.904 146.577 47.68C146.353 47.456 146.241 47.1787 146.241 46.848C146.241 46.5173 146.353 46.24 146.577 46.016C146.801 45.792 147.079 45.68 147.409 45.68C147.729 45.68 148.001 45.792 148.225 46.016C148.449 46.24 148.561 46.5173 148.561 46.848C148.561 47.1787 148.449 47.456 148.225 47.68C148.001 47.904 147.729 48.016 147.409 48.016ZM148.305 49.184V58H146.481V49.184H148.305ZM152.524 46.16V58H150.7V46.16H152.524ZM156.743 46.16V58H154.919V46.16H156.743Z" fill="black"/>
<path d="M64 38.6C66.3196 38.6 68.2 36.9882 68.2 35C68.2 33.0118 66.3196 31.4 64 31.4C61.6804 31.4 59.8 33.0118 59.8 35C59.8 36.9882 61.6804 38.6 64 38.6Z" fill="black"/>
<path d="M73.4182 38.2727C73.2488 38.6018 73.1982 38.9668 73.2731 39.3206C73.3479 39.6745 73.5448 40.0011 73.8382 40.2582L73.9145 40.3236C74.1512 40.5263 74.339 40.7669 74.4671 41.0318C74.5952 41.2966 74.6611 41.5805 74.6611 41.8673C74.6611 42.154 74.5952 42.4379 74.4671 42.7028C74.339 42.9676 74.1512 43.2083 73.9145 43.4109C73.6781 43.6138 73.3974 43.7747 73.0884 43.8845C72.7794 43.9943 72.4481 44.0508 72.1136 44.0508C71.7791 44.0508 71.4479 43.9943 71.1389 43.8845C70.8299 43.7747 70.5491 43.6138 70.3127 43.4109L70.2364 43.3455C69.9364 43.094 69.5554 42.9253 69.1426 42.8611C68.7297 42.7969 68.3039 42.8402 67.92 42.9855C67.5436 43.1237 67.2225 43.3534 66.9964 43.646C66.7703 43.9387 66.6489 44.2817 66.6473 44.6327V44.8182C66.6473 45.3968 66.3791 45.9518 65.9017 46.361C65.4244 46.7701 64.7769 47 64.1018 47C63.4267 47 62.7793 46.7701 62.3019 46.361C61.8245 45.9518 61.5564 45.3968 61.5564 44.8182V44.72C61.5465 44.3589 61.4102 44.0087 61.165 43.7149C60.9199 43.4212 60.5773 43.1974 60.1818 43.0727C59.7979 42.9275 59.3721 42.8842 58.9593 42.9484C58.5464 43.0125 58.1654 43.1812 57.8655 43.4327L57.7891 43.4982C57.5527 43.701 57.272 43.862 56.9629 43.9718C56.6539 44.0816 56.3227 44.1381 55.9882 44.1381C55.6537 44.1381 55.3224 44.0816 55.0134 43.9718C54.7044 43.862 54.4237 43.701 54.1873 43.4982C53.9506 43.2956 53.7629 43.0549 53.6348 42.7901C53.5067 42.5252 53.4407 42.2413 53.4407 41.9545C53.4407 41.6678 53.5067 41.3839 53.6348 41.119C53.7629 40.8542 53.9506 40.6135 54.1873 40.4109L54.2636 40.3455C54.557 40.0884 54.7539 39.7618 54.8287 39.4079C54.9036 39.054 54.8531 38.689 54.6836 38.36C54.5223 38.0373 54.2544 37.7622 53.913 37.5683C53.5715 37.3745 53.1714 37.2705 52.7618 37.2691H52.5455C51.8704 37.2691 51.2229 37.0392 50.7455 36.6301C50.2682 36.2209 50 35.6659 50 35.0873C50 34.5086 50.2682 33.9537 50.7455 33.5445C51.2229 33.1353 51.8704 32.9055 52.5455 32.9055H52.66C53.0813 32.897 53.4898 32.7801 53.8326 32.57C54.1753 32.3599 54.4364 32.0663 54.5818 31.7273C54.7512 31.3982 54.8018 31.0332 54.7269 30.6794C54.6521 30.3255 54.4552 29.9989 54.1618 29.7418L54.0855 29.6764C53.8488 29.4737 53.661 29.2331 53.5329 28.9682C53.4048 28.7034 53.3389 28.4195 53.3389 28.1327C53.3389 27.846 53.4048 27.5621 53.5329 27.2972C53.661 27.0324 53.8488 26.7917 54.0855 26.5891C54.3219 26.3862 54.6026 26.2253 54.9116 26.1155C55.2206 26.0057 55.5519 25.9492 55.8864 25.9492C56.2209 25.9492 56.5521 26.0057 56.8611 26.1155C57.1701 26.2253 57.4509 26.3862 57.6873 26.5891L57.7636 26.6545C58.0636 26.906 58.4446 27.0747 58.8574 27.1389C59.2703 27.2031 59.6961 27.1598 60.08 27.0145H60.1818C60.5583 26.8763 60.8793 26.6466 61.1054 26.354C61.3316 26.0613 61.4529 25.7183 61.4545 25.3673V25.1818C61.4545 24.6032 61.7227 24.0482 62.2001 23.639C62.6775 23.2299 63.3249 23 64 23C64.6751 23 65.3225 23.2299 65.7999 23.639C66.2773 24.0482 66.5455 24.6032 66.5455 25.1818V25.28C66.5471 25.631 66.6684 25.974 66.8946 26.2667C67.1207 26.5594 67.4417 26.789 67.8182 26.9273C68.2021 27.0725 68.6279 27.1158 69.0407 27.0516C69.4536 26.9875 69.8346 26.8188 70.1345 26.5673L70.2109 26.5018C70.4473 26.299 70.728 26.138 71.0371 26.0282C71.3461 25.9184 71.6773 25.8619 72.0118 25.8619C72.3463 25.8619 72.6776 25.9184 72.9866 26.0282C73.2956 26.138 73.5763 26.299 73.8127 26.5018C74.0494 26.7045 74.2371 26.9451 74.3652 27.2099C74.4933 27.4748 74.5593 27.7587 74.5593 28.0455C74.5593 28.3322 74.4933 28.6161 74.3652 28.881C74.2371 29.1458 74.0494 29.3865 73.8127 29.5891L73.7364 29.6545C73.443 29.9117 73.2461 30.2382 73.1713 30.5921C73.0964 30.946 73.1469 31.311 73.3164 31.64V31.7273C73.4777 32.0499 73.7456 32.3251 74.087 32.5189C74.4285 32.7128 74.8286 32.8168 75.2382 32.8182H75.4545C76.1296 32.8182 76.7771 33.0481 77.2545 33.4572C77.7318 33.8664 78 34.4213 78 35C78 35.5787 77.7318 36.1336 77.2545 36.5428C76.7771 36.9519 76.1296 37.1818 75.4545 37.1818H75.34C74.9305 37.1832 74.5303 37.2872 74.1889 37.4811C73.8474 37.6749 73.5795 37.9501 73.4182 38.2727Z" fill="black"/>
<path d="M64 38.6C66.3196 38.6 68.2 36.9882 68.2 35C68.2 33.0118 66.3196 31.4 64 31.4C61.6804 31.4 59.8 33.0118 59.8 35C59.8 36.9882 61.6804 38.6 64 38.6Z" stroke="white" stroke-width="2" stroke-linecap="round" stroke-linejoin="round"/>
<path d="M73.4182 38.2727C73.2488 38.6018 73.1982 38.9668 73.2731 39.3206C73.3479 39.6745 73.5448 40.0011 73.8382 40.2582L73.9145 40.3236C74.1512 40.5263 74.339 40.7669 74.4671 41.0318C74.5952 41.2966 74.6611 41.5805 74.6611 41.8673C74.6611 42.154 74.5952 42.4379 74.4671 42.7028C74.339 42.9676 74.1512 43.2083 73.9145 43.4109C73.6781 43.6138 73.3974 43.7747 73.0884 43.8845C72.7794 43.9943 72.4481 44.0508 72.1136 44.0508C71.7791 44.0508 71.4479 43.9943 71.1389 43.8845C70.8299 43.7747 70.5491 43.6138 70.3127 43.4109L70.2364 43.3455C69.9364 43.094 69.5554 42.9253 69.1426 42.8611C68.7297 42.7969 68.3039 42.8402 67.92 42.9855C67.5436 43.1237 67.2225 43.3534 66.9964 43.646C66.7703 43.9387 66.6489 44.2817 66.6473 44.6327V44.8182C66.6473 45.3968 66.3791 45.9518 65.9017 46.361C65.4244 46.7701 64.7769 47 64.1018 47C63.4267 47 62.7793 46.7701 62.3019 46.361C61.8245 45.9518 61.5564 45.3968 61.5564 44.8182V44.72C61.5465 44.3589 61.4102 44.0087 61.165 43.7149C60.9199 43.4212 60.5773 43.1974 60.1818 43.0727C59.7979 42.9275 59.3721 42.8842 58.9593 42.9484C58.5464 43.0125 58.1654 43.1812 57.8655 43.4327L57.7891 43.4982C57.5527 43.701 57.272 43.862 56.9629 43.9718C56.6539 44.0816 56.3227 44.1381 55.9882 44.1381C55.6537 44.1381 55.3224 44.0816 55.0134 43.9718C54.7044 43.862 54.4237 43.701 54.1873 43.4982C53.9506 43.2956 53.7629 43.0549 53.6348 42.7901C53.5067 42.5252 53.4407 42.2413 53.4407 41.9545C53.4407 41.6678 53.5067 41.3839 53.6348 41.119C53.7629 40.8542 53.9506 40.6135 54.1873 40.4109L54.2636 40.3455C54.557 40.0884 54.7539 39.7618 54.8287 39.4079C54.9036 39.054 54.8531 38.689 54.6836 38.36C54.5223 38.0373 54.2544 37.7622 53.913 37.5683C53.5715 37.3745 53.1714 37.2705 52.7618 37.2691H52.5455C51.8704 37.2691 51.2229 37.0392 50.7455 36.6301C50.2682 36.2209 50 35.6659 50 35.0873C50 34.5086 50.2682 33.9537 50.7455 33.5445C51.2229 33.1353 51.8704 32.9055 52.5455 32.9055H52.66C53.0813 32.897 53.4898 32.7801 53.8326 32.57C54.1753 32.3599 54.4364 32.0663 54.5818 31.7273C54.7512 31.3982 54.8018 31.0332 54.7269 30.6794C54.6521 30.3255 54.4552 29.9989 54.1618 29.7418L54.0855 29.6764C53.8488 29.4737 53.661 29.2331 53.5329 28.9682C53.4048 28.7034 53.3389 28.4195 53.3389 28.1327C53.3389 27.846 53.4048 27.5621 53.5329 27.2972C53.661 27.0324 53.8488 26.7917 54.0855 26.5891C54.3219 26.3862 54.6026 26.2253 54.9116 26.1155C55.2206 26.0057 55.5519 25.9492 55.8864 25.9492C56.2209 25.9492 56.5521 26.0057 56.8611 26.1155C57.1701 26.2253 57.4509 26.3862 57.6873 26.5891L57.7636 26.6545C58.0636 26.906 58.4446 27.0747 58.8574 27.1389C59.2703 27.2031 59.6961 27.1598 60.08 27.0145H60.1818C60.5583 26.8763 60.8793 26.6466 61.1054 26.354C61.3316 26.0613 61.4529 25.7183 61.4545 25.3673V25.1818C61.4545 24.6032 61.7227 24.0482 62.2001 23.639C62.6775 23.2299 63.3249 23 64 23C64.6751 23 65.3225 23.2299 65.7999 23.639C66.2773 24.0482 66.5455 24.6032 66.5455 25.1818V25.28C66.5471 25.631 66.6684 25.974 66.8946 26.2667C67.1207 26.5594 67.4417 26.789 67.8182 26.9273C68.2021 27.0725 68.6279 27.1158 69.0407 27.0516C69.4536 26.9875 69.8346 26.8188 70.1345 26.5673L70.2109 26.5018C70.4473 26.299 70.728 26.138 71.0371 26.0282C71.3461 25.9184 71.6773 25.8619 72.0118 25.8619C72.3463 25.8619 72.6776 25.9184 72.9866 26.0282C73.2956 26.138 73.5763 26.299 73.8127 26.5018C74.0494 26.7045 74.2371 26.9451 74.3652 27.2099C74.4933 27.4748 74.5593 27.7587 74.5593 28.0455C74.5593 28.3322 74.4933 28.6161 74.3652 28.881C74.2371 29.1458 74.0494 29.3865 73.8127 29.5891L73.7364 29.6545C73.443 29.9117 73.2461 30.2382 73.1713 30.5921C73.0964 30.946 73.1469 31.311 73.3164 31.64V31.7273C73.4777 32.0499 73.7456 32.3251 74.087 32.5189C74.4285 32.7128 74.8286 32.8168 75.2382 32.8182H75.4545C76.1296 32.8182 76.7771 33.0481 77.2545 33.4572C77.7318 33.8664 78 34.4213 78 35C78 35.5787 77.7318 36.1336 77.2545 36.5428C76.7771 36.9519 76.1296 37.1818 75.4545 37.1818H75.34C74.9305 37.1832 74.5303 37.2872 74.1889 37.4811C73.8474 37.6749 73.5795 37.9501 73.4182 38.2727Z" stroke="white" stroke-width="2" stroke-linecap="round" stroke-linejoin="round"/>
<path d="M56 50H58V48H56V50Z" fill="black"/>
<path d="M56 53H58V52H56V53Z" fill="black"/>
<path d="M56 57H58V55H56V57Z" fill="black"/>
<path d="M56 61H58V59H56V61Z" fill="black"/>
<path d="M69 48H67V50H69V48Z" fill="black"/>
<path d="M73 48H71V50H73V48Z" fill="black"/>
<path d="M69 52H67V53H69V52Z" fill="black"/>
<path d="M73 52H71V53H73V52Z" fill="black"/>
<path d="M69 55H67V57H69V55Z" fill="black"/>
<path d="M73 55H71V57H73V55Z" fill="black"/>
<path d="M69 59H67V61H69V59Z" fill="black"/>
<path d="M73 59H71V61H73V59Z" fill="black"/>
<path fill-rule="evenodd" clip-rule="evenodd" d="M78.8951 39.5203C78.4943 42.1897 76.9688 44.5847 74.7057 46.3977V64.4066H64.2319V49.8789C64.2178 49.8789 64.2036 49.8789 64.1895 49.8789C62.75 49.8789 61.3584 49.7158 60.0426 49.4114V64.4066H53.7582V51.8146V46.4651C51.5861 44.7529 50.0782 42.5095 49.5687 40.0006V40.9283L42.6212 42.9122C41.7665 43.1602 41.1894 43.8485 41.1894 44.6228V52.9179L38.4318 53.7075C37.5765 53.9504 37 54.6387 37 55.413V66.2032C37 67.1952 37.9378 67.9999 39.0944 67.9999H51.6632H62.1369H76.8007C77.9584 67.9999 78.8951 67.1952 78.8951 66.2032V39.5203ZM43.9422 55.9191L41.1894 56.7087V64.4066H43.2844V60.8081C43.2844 59.8161 44.2222 59.0114 45.3788 59.0114C46.5359 59.0114 47.4738 59.8161 47.4738 60.8081V64.4066H49.5687V54.3097L43.9469 55.9191H43.9422ZM49.5687 44.719L45.3788 45.9185V51.7185L49.5687 50.519V44.719Z" fill="black"/>
</svg>
